<svg width="341" height="167" viewBox="0 0 341 167" fill="none" xmlns="http://www.w3.org/2000/svg">
<path d="M46.464 128.536C38.016 128.536 30.6347 126.616 24.32 122.776C18.0053 118.851 13.0987 113.432 9.6 106.52C6.18667 99.5227 4.48 91.416 4.48 82.2C4.48 72.984 6.18667 64.92 9.6 58.008C13.0987 51.0107 18.0053 45.592 24.32 41.752C30.6347 37.8267 38.0587 35.864 46.592 35.864C56.32 35.864 64.1707 38.1253 70.144 42.648C76.2027 47.0853 80.2133 53.4 82.176 61.592H75.648C74.1973 55.448 71.04 50.4987 66.176 46.744C61.3973 42.9893 54.8267 41.112 46.464 41.112C39.3813 41.112 33.1093 42.7333 27.648 45.976C22.272 49.2187 18.048 53.9547 14.976 60.184C11.9893 66.328 10.496 73.6667 10.496 82.2C10.496 90.7333 11.9893 98.072 14.976 104.216C18.048 110.36 22.272 115.096 27.648 118.424C33.1093 121.667 39.424 123.288 46.592 123.288C54.784 123.288 61.312 121.411 66.176 117.656C71.04 113.816 74.1973 108.824 75.648 102.68H82.176C80.2133 110.872 76.2027 117.229 70.144 121.752C64.1707 126.275 56.2773 128.536 46.464 128.536ZM92.385 127V37.4H98.145V127H92.385Z" fill="#3ABEAD"/>
<path d="M130.371 128.536C125.422 128.536 121.24 127.64 117.827 125.848C114.499 123.971 111.982 121.539 110.275 118.552C108.568 115.48 107.715 112.195 107.715 108.696C107.715 104.088 108.782 100.333 110.915 97.432C113.048 94.4453 116.078 92.2267 120.003 90.776C123.928 89.24 128.494 88.472 133.699 88.472H153.283C153.283 84.0347 152.6 80.2373 151.235 77.08C149.87 73.8373 147.822 71.3627 145.091 69.656C142.36 67.9493 138.776 67.096 134.339 67.096C129.048 67.096 124.654 68.376 121.155 70.936C117.742 73.4107 115.608 77.1653 114.755 82.2H108.739C109.336 77.6773 110.872 73.9227 113.347 70.936C115.822 67.9493 118.894 65.7307 122.563 64.28C126.232 62.744 130.158 61.976 134.339 61.976C140.227 61.976 144.963 63.128 148.547 65.432C152.216 67.6507 154.862 70.7227 156.483 74.648C158.19 78.488 159.043 82.9253 159.043 87.96V127H153.923L153.155 113.944H152.643C152.046 115.139 151.15 116.589 149.955 118.296C148.846 119.917 147.395 121.539 145.603 123.16C143.811 124.696 141.635 125.976 139.075 127C136.6 128.024 133.699 128.536 130.371 128.536ZM130.883 123.288C134.467 123.288 137.624 122.605 140.355 121.24C143.171 119.875 145.518 118.04 147.395 115.736C149.272 113.432 150.723 110.829 151.747 107.928C152.771 105.027 153.283 102.04 153.283 98.968V93.464H134.083C128.963 93.464 124.91 94.1467 121.923 95.512C118.936 96.8773 116.803 98.6693 115.523 100.888C114.328 103.107 113.731 105.667 113.731 108.568C113.731 111.213 114.371 113.688 115.651 115.992C117.016 118.211 118.979 120.003 121.539 121.368C124.099 122.648 127.214 123.288 130.883 123.288ZM170.284 127V63.512H176.044V127H170.284ZM173.1 47C171.905 47 170.839 46.5733 169.9 45.72C169.047 44.7813 168.62 43.672 168.62 42.392C168.62 41.0267 169.047 39.96 169.9 39.192C170.753 38.3387 171.82 37.912 173.1 37.912C174.38 37.912 175.447 38.3387 176.3 39.192C177.153 39.96 177.58 41.0267 177.58 42.392C177.58 43.5867 177.153 44.6533 176.3 45.592C175.447 46.5307 174.38 47 173.1 47ZM187.87 127V63.512H192.99L193.758 75.8H194.27C195.806 72.5573 197.683 69.9547 199.902 67.992C202.121 65.944 204.723 64.4507 207.71 63.512C210.782 62.488 214.238 61.976 218.078 61.976V67.864H216.414C213.854 67.864 211.209 68.2053 208.478 68.888C205.833 69.5707 203.358 70.808 201.054 72.6C198.835 74.392 197.043 76.9093 195.678 80.152C194.313 83.3947 193.63 87.5333 193.63 92.568V127H187.87Z" fill="#54C6B4"/>
<path d="M335.24 39L335.24 128.6L329.48 128.6L329.48 39L335.24 39ZM289.062 39L323.11 128.6L316.71 128.6L285.222 44.888L284.71 44.888L253.094 128.6L246.822 128.6L281.126 39L289.062 39Z" fill="#8AD8C2"/>
</svg>
