<svg width="403" height="167" viewBox="0 0 403 167" fill="none" xmlns="http://www.w3.org/2000/svg">
<path d="M48.384 128.536C39.7653 128.536 32.2987 126.616 25.984 122.776C19.6693 118.851 14.8053 113.432 11.392 106.52C7.97867 99.5227 6.272 91.416 6.272 82.2C6.272 72.984 7.97867 64.92 11.392 58.008C14.8053 51.0107 19.6693 45.592 25.984 41.752C32.384 37.8267 39.8507 35.864 48.384 35.864C58.4533 35.864 66.6027 38.2533 72.832 43.032C79.1467 47.7253 83.2 54.3813 84.992 63H75.136C73.7707 57.1973 70.8693 52.5467 66.432 49.048C61.9947 45.464 55.9787 43.672 48.384 43.672C41.8133 43.672 36.0533 45.208 31.104 48.28C26.1547 51.352 22.3147 55.7893 19.584 61.592C16.8533 67.3093 15.488 74.1787 15.488 82.2C15.488 90.2213 16.8533 97.1333 19.584 102.936C22.3147 108.653 26.1547 113.048 31.104 116.12C36.0533 119.192 41.8133 120.728 48.384 120.728C55.9787 120.728 61.952 118.979 66.304 115.48C70.7413 111.981 73.6853 107.373 75.136 101.656H84.992C83.1147 110.104 79.0613 116.717 72.832 121.496C66.688 126.189 58.5387 128.536 48.384 128.536ZM100.338 127V34.84H109.298V127H100.338Z" fill="#3ABEAD"/>
<path d="M148.071 128.536C142.866 128.536 138.514 127.597 135.015 125.72C131.602 123.843 129.042 121.411 127.335 118.424C125.714 115.437 124.903 112.152 124.903 108.568C124.903 104.131 126.012 100.376 128.231 97.304C130.535 94.232 133.735 91.928 137.831 90.392C141.927 88.856 146.706 88.088 152.167 88.088H169.575C169.575 83.9067 168.935 80.3653 167.655 77.464C166.375 74.5627 164.498 72.3867 162.023 70.936C159.548 69.4 156.434 68.632 152.679 68.632C148.327 68.632 144.572 69.7413 141.415 71.96C138.258 74.1787 136.295 77.4213 135.527 81.688H126.183C126.695 77.1653 128.231 73.368 130.791 70.296C133.436 67.224 136.679 64.92 140.519 63.384C144.359 61.7627 148.412 60.952 152.679 60.952C158.652 60.952 163.516 62.104 167.271 64.408C171.026 66.6267 173.842 69.6987 175.719 73.624C177.596 77.5493 178.535 82.072 178.535 87.192V127H170.343L169.831 115.224C169.063 117.016 167.996 118.723 166.631 120.344C165.351 121.965 163.815 123.373 162.023 124.568C160.316 125.763 158.311 126.701 156.007 127.384C153.703 128.152 151.058 128.536 148.071 128.536ZM149.095 120.728C152.252 120.728 155.068 120.088 157.543 118.808C160.103 117.443 162.279 115.693 164.071 113.56C165.863 111.427 167.228 109.037 168.167 106.392C169.106 103.661 169.575 100.845 169.575 97.944V95.64H152.807C148.284 95.64 144.658 96.1947 141.927 97.304C139.196 98.4133 137.234 99.9067 136.039 101.784C134.844 103.661 134.247 105.837 134.247 108.312C134.247 110.787 134.802 112.963 135.911 114.84C137.02 116.632 138.684 118.083 140.903 119.192C143.207 120.216 145.938 120.728 149.095 120.728ZM196.743 127V62.488H205.575V127H196.743ZM201.223 47.256C199.431 47.256 197.895 46.6587 196.615 45.464C195.335 44.184 194.695 42.6053 194.695 40.728C194.695 38.7653 195.292 37.2293 196.487 36.12C197.767 34.9253 199.303 34.328 201.095 34.328C202.887 34.328 204.423 34.9253 205.703 36.12C206.983 37.2293 207.623 38.7653 207.623 40.728C207.623 42.6053 206.983 44.184 205.703 45.464C204.508 46.6587 203.015 47.256 201.223 47.256ZM225.088 127V62.488H233.28L233.92 74.904C235.285 71.9173 237.12 69.4 239.424 67.352C241.728 65.304 244.501 63.7253 247.744 62.616C250.987 61.5067 254.656 60.952 258.752 60.952V70.296H255.296C252.565 70.296 249.92 70.68 247.36 71.448C244.8 72.1307 242.539 73.3253 240.576 75.032C238.613 76.7387 237.035 79.0427 235.84 81.944C234.645 84.8453 234.048 88.472 234.048 92.824V127H225.088Z" fill="#54C6B4"/>
<path d="M393.016 39L393.016 128.6L384.056 128.6L384.056 39L393.016 39ZM337.005 39L370.925 128.6L361.197 128.6L331.885 48.728L302.189 128.6L292.717 128.6L326.765 39L337.005 39Z" fill="#8AD8C2"/>
</svg>
